# 3ds Max Wavefront OBJ Exporter v0.97b - (c)2007 guruware
# File Created: 15.02.2018 23:12:47

mtllib 873257_LAVABO.mtl

#
# object Object017
#

v  -73.8727 -1.4512 -2226.3794
v  -73.8727 -1.4512 -2253.5383
v  -53.9285 -1.4512 -2253.5383
v  -53.9285 -1.4512 -2226.3794
v  -53.9285 7.4210 -2221.9604
v  -73.8727 7.4210 -2221.9604
v  -32.5260 -1.4512 -2281.1968
v  -53.9285 -1.4512 -2281.1968
v  -53.9285 7.4210 -2286.2551
v  -32.5260 7.4210 -2286.2551
v  -73.8727 -1.4512 -2281.1968
v  -73.8727 7.4210 -2253.8149
v  -73.8727 7.4210 -2286.2551
v  -67.2462 13.3741 -2297.9600
v  -39.4204 13.3741 -2297.9600
v  -23.0086 13.3741 -2297.9600
v  -23.0086 11.2578 -2297.9600
v  -52.1695 11.2578 -2297.9600
v  -79.3436 11.2578 -2297.9600
v  -79.3436 13.3741 -2297.9600
v  -69.8262 13.3741 -2220.0496
v  -67.2462 13.3741 -2220.0496
v  -63.8602 13.3741 -2230.4421
v  -67.1128 13.3741 -2230.4421
v  -39.4204 13.3741 -2220.0496
v  -46.9780 13.3741 -2230.4421
v  -32.5260 13.3741 -2220.0496
v  -41.0242 13.3741 -2230.4421
v  -32.5260 13.3741 -2231.6721
v  -41.0242 13.3741 -2240.8269
v  -32.5260 13.3741 -2278.8057
v  -41.0242 13.3741 -2269.4236
v  -32.5260 13.3741 -2288.4426
v  -41.0242 13.3741 -2279.2825
v  -39.4204 13.3741 -2288.4426
v  -46.9780 13.3741 -2279.2825
v  -67.2462 13.3741 -2288.4426
v  -63.8602 13.3741 -2279.2825
v  -69.8262 13.3741 -2288.4426
v  -67.1128 13.3741 -2279.2825
v  -69.8262 13.3741 -2278.8057
v  -67.1128 13.3741 -2269.4236
v  -69.8262 13.3741 -2231.6721
v  -67.1128 13.3741 -2240.8269
v  -63.8602 1.3741 -2234.8269
v  -67.1128 1.3741 -2234.8269
v  -46.9780 1.3741 -2234.8269
v  -41.0242 1.3741 -2234.8269
v  -41.0242 1.3741 -2240.8269
v  -41.0242 1.3741 -2274.7249
v  -41.0242 1.3741 -2269.4236
v  -46.9780 1.3741 -2274.7249
v  -63.8602 1.3741 -2274.7249
v  -67.1128 1.3741 -2274.7249
v  -67.1128 1.3741 -2269.4236
v  -67.1128 1.3741 -2240.8269
v  -67.1128 1.3741 -2252.9805
v  -67.1128 1.3741 -2255.1252
v  -67.1128 1.3741 -2257.2700
v  -32.5260 7.4210 -2253.8149
v  -32.5260 -1.4512 -2253.5383
v  -23.0086 11.2578 -2210.5322
v  -23.0086 13.3741 -2210.5322
v  -39.4204 13.3741 -2210.5322
v  -67.2462 13.3741 -2210.5322
v  -79.3436 13.3741 -2210.5322
v  -79.3436 11.2578 -2210.5322
v  -52.1695 11.2578 -2210.5322
v  -23.0086 13.3741 -2278.8057
v  -23.0086 13.3741 -2231.6721
v  -23.0086 11.2578 -2253.8477
v  -79.3436 13.3741 -2231.6721
v  -79.3436 13.3741 -2278.8057
v  -79.3436 11.2578 -2253.8477
v  -32.5260 11.2578 -2288.4426
v  -53.9285 11.2578 -2288.4426
v  -73.8727 11.2578 -2288.4426
v  -73.8727 11.2578 -2253.9343
v  -73.8727 11.2578 -2220.0496
v  -53.9285 11.2578 -2220.0496
v  -32.5260 11.2578 -2220.0496
v  -32.5260 11.2578 -2253.9343
v  -32.5260 7.4210 -2221.9604
v  -49.2824 1.3741 -2252.3550
v  -49.5869 1.3741 -2252.3550
v  -46.9998 1.3741 -2252.3550
v  -46.3300 1.3741 -2252.3550
v  -46.3300 1.3741 -2253.0308
v  -46.3300 1.3741 -2256.8975
v  -46.3300 1.3741 -2257.4790
v  -46.9998 1.3741 -2257.4790
v  -49.2824 1.3741 -2257.4790
v  -49.5869 1.3741 -2257.4790
v  -49.5869 1.3741 -2256.8975
v  -49.5869 1.3741 -2255.2542
v  -49.5869 1.3741 -2254.9641
v  -49.5869 1.3741 -2254.6741
v  -49.5869 1.3741 -2253.0308
v  -28.8797 13.3741 -2253.4702
v  -28.8797 13.3741 -2256.7883
v  -26.6549 13.3741 -2253.4702
v  -26.6549 13.3741 -2256.7883
v  -41.0242 10.8339 -2256.3564
v  -41.0242 10.8339 -2253.8940
v  -41.0242 8.8055 -2256.3564
v  -41.0242 8.8055 -2253.8940
v  -49.2824 1.6456 -2252.3550
v  -49.5869 1.6456 -2252.3550
v  -46.9998 1.6456 -2252.3550
v  -46.3300 1.6456 -2252.3550
v  -46.3300 1.6456 -2253.0308
v  -46.3300 1.6456 -2256.8975
v  -46.3300 1.6456 -2257.4790
v  -46.9998 1.6456 -2257.4790
v  -49.2824 1.6456 -2257.4790
v  -49.5869 1.6456 -2257.4790
v  -49.5869 1.6456 -2256.8975
v  -49.5869 1.6456 -2255.2542
v  -49.5869 1.6456 -2254.9641
v  -49.5869 1.6456 -2254.6741
v  -49.5869 1.6456 -2253.0308
v  -49.1763 -0.1155 -2252.6436
v  -49.4468 -0.1155 -2252.6436
v  -47.1487 -0.1155 -2252.6436
v  -46.5537 -0.1155 -2252.6436
v  -46.5537 -0.1155 -2253.2441
v  -46.5537 -0.1155 -2256.6785
v  -46.5537 -0.1155 -2257.1951
v  -47.1487 -0.1155 -2257.1951
v  -49.1763 -0.1155 -2257.1951
v  -49.4468 -0.1155 -2257.1951
v  -49.4468 -0.1155 -2256.6785
v  -49.4468 -0.1155 -2255.2190
v  -49.4468 -0.1155 -2254.9614
v  -49.4468 -0.1155 -2254.7036
v  -49.4468 -0.1155 -2253.2441
v  -30.6621 34.5586 -2253.6589
v  -30.6621 33.0939 -2253.6589
v  -26.5045 33.4143 -2253.6589
v  -26.5001 35.0063 -2253.6589
v  -30.6621 35.2139 -2253.6589
v  -30.6621 33.0939 -2256.8616
v  -30.6621 34.5586 -2256.8616
v  -34.4264 34.8753 -2256.8616
v  -34.4264 34.8753 -2253.6589
v  -35.3049 35.4532 -2253.6589
v  -35.3049 35.4532 -2256.8616
v  -30.6621 35.2139 -2256.8616
v  -26.5002 35.0063 -2256.8616
v  -26.5045 33.4143 -2256.8616
v  -26.9301 33.3815 -2256.2715
v  -26.8661 32.8775 -2256.2715
v  -30.1725 32.8874 -2256.2715
v  -30.2365 33.1267 -2256.2715
v  -30.1725 32.8874 -2254.2490
v  -30.2365 33.1267 -2254.2490
v  -26.9301 33.3815 -2254.2490
v  -26.8661 32.8775 -2254.2490
v  -26.1921 13.2799 -2257.1594
v  -26.1921 13.2799 -2253.3396
v  -29.7293 13.2799 -2253.3396
v  -29.7293 13.2799 -2257.1594
v  -26.4723 32.8832 -2256.8423
v  -30.6757 32.8832 -2256.8423
v  -30.6757 32.8832 -2253.6567
v  -26.4723 32.8832 -2253.6567
v  -29.7293 13.6922 -2257.1594
v  -26.1921 13.6922 -2257.1594
v  -29.4491 28.5507 -2256.8423
v  -29.4491 29.2888 -2256.8423
v  -26.4723 29.2888 -2256.8423
v  -26.4723 28.5507 -2256.8423
v  -29.7293 13.6922 -2253.3396
v  -29.4491 28.5507 -2253.6567
v  -29.4491 29.2888 -2253.6567
v  -26.1921 13.6922 -2253.3396
v  -26.4723 28.5507 -2253.6567
v  -26.4723 29.2888 -2253.6567
v  -30.6757 32.3737 -2256.8423
v  -26.4723 32.3737 -2256.8423
v  -26.4723 30.0780 -2256.8423
v  -31.6684 30.0346 -2256.8423
v  -40.4637 31.5733 -2254.6343
v  -40.4637 31.5733 -2255.8647
v  -38.8773 30.7226 -2255.8647
v  -38.8773 30.7226 -2254.6343
v  -26.4723 32.3737 -2253.6567
v  -30.6757 32.3737 -2253.6567
v  -31.6684 30.0346 -2253.6567
v  -26.4723 30.0780 -2253.6567
v  -41.8046 32.4106 -2256.8423
v  -41.8046 32.4106 -2253.6567
v  -37.7002 30.0767 -2256.8423
v  -37.7002 30.0767 -2253.6567
v  -26.4723 13.6922 -2256.8423
v  -29.4491 13.6922 -2256.8423
v  -29.4491 13.6922 -2253.6567
v  -26.4723 13.6922 -2253.6567
v  -40.6343 31.6856 -2256.1272
v  -40.6343 31.6856 -2254.3718
v  -38.6876 30.6181 -2256.1272
v  -38.6876 30.6181 -2254.3718
v  -41.0136 31.2633 -2256.1272
v  -41.0136 31.2633 -2254.3718
v  -39.0525 30.2118 -2256.1272
v  -39.0525 30.2118 -2254.3718
v  -40.8263 31.1629 -2255.8647
v  -40.8263 31.1629 -2254.6343
v  -39.2399 30.3122 -2255.8647
v  -39.2399 30.3122 -2254.6343
v  -32.5260 -1.4512 -2226.3794
# 211 vertices

vn -0.6056 -0.6766 0.4189
vn -0.7071 -0.7071 -0.0000
vn 0.0000 -1.0000 -0.0000
vn 0.0000 -0.8502 0.5264
vn 0.0000 -0.4458 0.8951
vn -0.7071 -0.3153 0.6329
vn 0.6096 -0.6854 -0.3982
vn 0.0000 -0.8647 -0.5024
vn 0.0000 -0.4953 -0.8687
vn 0.7071 -0.3502 -0.6143
vn -0.6096 -0.6854 -0.3982
vn -1.0000 -0.0000 -0.0000
vn -0.7071 -0.3502 -0.6143
vn 0.0000 0.7071 -0.7071
vn 0.5774 0.5774 -0.5774
vn 0.5774 -0.5774 -0.5774
vn 0.0000 -0.7071 -0.7071
vn -0.5774 -0.5773 -0.5774
vn -0.5774 0.5774 -0.5774
vn 0.0000 1.0000 -0.0000
vn 0.0000 0.8196 -0.5730
vn 0.2183 0.9395 -0.2639
vn -0.2183 0.9395 -0.2639
vn -0.7071 0.7071 0.0000
vn -0.7071 0.7071 -0.0000
vn -0.2156 0.9407 0.2621
vn 0.0000 0.8231 0.5679
vn 0.2156 0.9407 0.2621
vn 0.7071 0.7071 -0.0000
vn 0.5981 0.6568 -0.4592
vn -0.5981 0.6568 -0.4592
vn -0.5989 0.6592 0.4548
vn 0.5989 0.6592 0.4548
vn 1.0000 0.0000 -0.0000
vn 0.7071 -0.7071 -0.0000
vn 0.5774 -0.5774 0.5774
vn 0.5774 0.5774 0.5774
vn 0.0000 0.7071 0.7071
vn -0.5774 0.5774 0.5774
vn -0.5774 -0.5774 0.5774
vn 0.0000 -0.7071 0.7071
vn 0.1829 -0.9541 -0.2371
vn -0.1829 -0.9541 -0.2371
vn -0.1945 -0.9494 0.2466
vn 0.1945 -0.9494 0.2466
vn 0.7071 -0.3153 0.6329
vn -0.3015 0.9045 0.3015
vn 0.3015 0.9045 0.3015
vn 0.3015 0.9045 -0.3015
vn -0.3015 0.9045 -0.3015
vn -1.0000 0.0000 -0.0000
vn -1.0000 0.0000 0.0000
vn -1.0000 -0.0000 0.0000
vn 0.0000 0.9967 0.0812
vn -0.4134 0.8774 0.2435
vn 0.3678 0.8779 0.3067
vn 0.0631 0.9980 -0.0000
vn 0.3654 0.8783 -0.3082
vn 0.0000 0.9968 -0.0798
vn -0.4114 0.8780 -0.2447
vn -0.0397 0.9992 -0.0000
vn 0.0000 0.1618 -0.9868
vn 0.7175 0.1679 -0.6760
vn -0.7018 0.2012 -0.6834
vn -0.9920 0.1260 -0.0000
vn -0.7013 0.1994 0.6844
vn 0.0000 0.1591 0.9873
vn 0.7170 0.1661 0.6769
vn 0.9969 0.0793 -0.0000
vn -0.6885 0.0000 -0.7253
vn -0.7246 0.0000 0.6891
vn 0.6894 -0.0019 0.7244
vn 0.5910 0.5608 0.5799
vn 0.0358 0.7060 0.7073
vn -0.7246 0.0000 -0.6891
vn -0.9537 -0.0000 -0.3009
vn -0.2807 -0.4268 -0.8597
vn -0.2807 -0.4268 0.8597
vn -0.7988 0.2621 0.5415
vn -0.7989 0.2618 -0.5415
vn 0.0358 0.7060 -0.7073
vn 0.5910 0.5607 -0.5799
vn 0.6894 -0.0019 -0.7244
vn 0.6905 0.0877 -0.7180
vn 0.7309 0.0928 -0.6761
vn -0.6282 -0.1680 -0.7597
vn -0.7243 -0.1937 -0.6617
vn -0.9660 -0.2584 0.0000
vn -0.9660 -0.2584 -0.0000
vn 0.9920 0.1260 0.0000
vn 0.9920 0.1260 -0.0000
vn -0.5774 -0.5774 -0.5774
vn -0.5774 0.5773 0.5773
vn 0.5773 0.5774 0.5774
vn -0.7071 0.0000 -0.7071
vn -0.4080 -0.2933 -0.8646
vn 0.7071 0.0000 -0.7071
vn -0.7071 0.0000 0.7071
vn -0.4080 -0.2933 0.8646
vn 0.7071 0.0000 0.7071
vn -0.3004 0.3014 -0.9049
vn -0.1100 -0.6585 -0.7445
vn 0.1425 -0.7944 -0.5905
vn 0.1425 -0.7944 0.5905
vn -0.8114 -0.1455 0.5661
vn -0.8114 -0.1455 -0.5661
vn -0.3004 0.3014 0.9049
vn -0.1100 -0.6585 0.7445
vn -0.8056 0.2259 -0.5477
vn -0.8056 0.2259 0.5477
vn -0.1919 -0.7300 -0.6560
vn -0.1919 -0.7300 0.6560
vn -0.6936 -0.5936 -0.4081
vn -0.6936 -0.5936 0.4081
vn -0.2009 -0.9484 -0.2454
vn -0.2008 -0.9484 0.2454
vn -0.8122 -0.1422 -0.5658
vn -0.8122 -0.1422 0.5658
vn 0.1393 -0.7946 -0.5910
vn 0.1392 -0.7946 0.5910
vn -0.1921 -0.9503 0.2451
vn -0.1921 -0.9503 -0.2451
vn -0.6874 -0.6286 0.3639
vn -0.6874 -0.6286 -0.3639
vn 0.6056 -0.6766 0.4189
# 125 vertex normals

vt 1.0000 0.0000 0.0000
vt 1.0000 40.8740 0.0000
vt -20.7065 40.8740 0.0000
vt -20.7065 0.0000 0.0000
vt 0.0000 0.0000 0.0000
vt 21.7065 0.0000 0.0000
vt 21.7065 10.0413 0.0000
vt 0.0000 10.0413 0.0000
vt 23.2935 0.0000 0.0000
vt 23.2935 10.0413 0.0000
vt 41.6260 0.0000 0.0000
vt 41.6260 10.0413 0.0000
vt 38.6389 16.5000 0.0000
vt 10.8132 16.5000 0.0000
vt 0.0000 16.5000 0.0000
vt 0.0000 14.3837 0.0000
vt 23.2935 14.3837 0.0000
vt 45.0000 14.3837 0.0000
vt 45.0000 16.5000 0.0000
vt 82.5000 16.5000 0.0000
vt 6.3611 16.5000 0.0000
vt 34.1868 16.5000 0.0000
vt 53.2349 16.5000 0.0000
vt 74.6592 16.5000 0.0000
vt 52.8408 16.5000 0.0000
vt 74.2651 16.5000 0.0000
vt 65.1598 16.5000 0.0000
vt 63.5530 16.5000 0.0000
vt 61.9461 16.5000 0.0000
vt -44.0000 82.5000 0.0000
vt -44.0000 40.8740 0.0000
vt 21.7065 14.3837 0.0000
vt -44.0000 65.2503 0.0000
vt -44.0000 18.1167 0.0000
vt -44.0000 -0.0000 0.0000
vt 82.5000 14.3837 0.0000
vt 64.3833 16.5000 0.0000
vt 17.2497 16.5000 0.0000
vt 41.6260 14.3837 0.0000
vt 45.0000 10.0413 0.0000
vt 82.5000 10.0413 0.0000
vt 0.3235 2.8885 0.0000
vt 0.3235 2.5561 0.0000
vt 0.0000 2.5561 0.0000
vt 0.0000 3.0371 0.0000
vt 0.3235 3.0371 0.0000
vt 1.0000 0.3014 0.0000
vt 0.6765 0.3014 0.0000
vt 0.6765 0.0000 0.0000
vt 0.3235 0.0000 0.0000
vt 0.3235 0.3014 0.0000
vt 0.0000 0.3014 0.0000
vt 0.3235 0.0266 0.0000
vt 0.0000 0.0266 0.0000
vt 0.3235 2.2779 0.0000
vt 0.3235 2.4123 0.0000
vt 0.0000 2.4123 0.0000
vt 0.0000 2.2779 0.0000
vt 0.3014 0.0000 0.0000
vt 0.3014 0.0266 0.0000
vt 0.3014 2.2779 0.0000
vt 0.3014 2.4123 0.0000
vt 0.3014 3.0371 0.0000
vt 0.3014 2.5561 0.0000
vt -20.7065 82.5000 0.0000
vt 45.0000 0.0000 0.0000
vt 1.0000 82.5000 0.0000
vt 82.5000 0.0000 0.0000
vt -44.0000 0.0000 0.0000
# 69 texture coords

o Object017
g Object017
usemtl 01___Default
s 18
f 1/1/1 2/2/2 3/3/3 4/4/4 
s 8
f 1/5/1 4/6/4 5/7/5 6/8/6 
s 32
f 7/5/7 8/9/8 9/10/9 10/8/10 
s 64
f 11/5/11 2/11/2 12/12/12 13/8/13 
s 32
f 14/13/14 15/14/14 16/15/15 17/16/16 18/17/17 19/18/18 20/19/19 
s off
f 21/20/20 22/21/20 23/21/21 24/20/22 
f 22/21/20 25/22/20 26/22/21 23/21/21 
f 25/22/20 27/19/20 28/19/23 26/22/21 
f 27/19/20 29/23/20 30/23/24 28/19/23 
f 29/23/20 31/24/20 32/24/25 30/23/24 
f 31/24/20 33/20/20 34/20/26 32/24/25 
f 33/20/20 35/14/20 36/14/27 34/20/26 
f 35/14/20 37/13/20 38/13/27 36/14/27 
f 37/13/20 39/19/20 40/19/28 38/13/27 
f 39/19/20 41/25/20 42/25/29 40/19/28 
f 41/25/20 43/26/20 44/26/29 42/25/29 
f 43/26/20 21/20/20 24/20/22 44/26/29 
f 24/20/22 23/21/21 45/21/21 46/20/30 
f 23/21/21 26/22/21 47/22/21 45/21/21 
f 26/22/21 28/19/23 48/19/31 47/22/21 
f 28/19/23 30/23/24 49/23/24 48/19/31 
f 32/24/25 34/20/26 50/20/32 51/24/25 
f 34/20/26 36/14/27 52/14/27 50/20/32 
f 36/14/27 38/13/27 53/13/27 52/14/27 
f 38/13/27 40/19/28 54/19/33 53/13/27 
f 40/19/28 42/25/29 55/25/29 54/19/33 
f 42/25/29 44/26/29 56/26/29 57/27/29 58/28/29 59/29/29 55/25/29 
f 44/26/29 24/20/22 46/20/30 56/26/29 
s 18
f 7/30/7 10/30/10 60/31/34 61/31/35 
s 8
f 62/18/36 63/19/37 64/22/38 65/21/38 66/15/39 67/16/40 68/32/41 
s 18
f 17/30/16 16/30/15 69/33/29 70/34/29 63/35/37 62/35/36 71/31/35 
s 64
f 67/36/40 66/20/39 72/37/25 73/38/25 20/15/19 19/16/18 74/39/2 
s off
f 22/21/20 21/15/20 66/15/39 65/21/38 
f 21/20/20 43/37/20 72/37/25 66/20/39 
f 43/37/20 41/38/20 73/38/25 72/37/25 
f 41/38/20 39/15/20 20/15/19 73/38/25 
f 39/19/20 37/13/20 14/13/14 20/19/19 
f 37/13/20 35/14/20 15/14/14 14/13/14 
f 35/14/20 33/15/20 16/15/15 15/14/14 
f 33/30/20 31/33/20 69/33/29 16/30/15 
f 29/34/20 27/35/20 63/35/37 70/34/29 
f 27/19/20 25/22/20 64/22/38 63/19/37 
f 25/22/20 22/21/20 65/21/38 64/22/38 
f 75/16/42 76/17/8 18/17/17 17/16/16 
f 77/16/43 78/39/2 74/39/2 19/16/18 
f 79/16/44 80/32/4 68/32/41 67/16/40 
f 81/35/45 82/31/35 71/31/35 62/35/36 
s 8
f 83/40/46 81/18/45 80/32/4 5/7/5 
s 32
f 13/40/13 77/18/43 76/17/8 9/10/9 
s 64
f 6/41/6 79/36/44 78/39/2 12/12/12 
s 18
f 10/30/10 75/30/42 82/31/35 60/31/34 
s off
f 46/20/30 45/21/21 84/21/38 85/20/47 
f 45/21/21 47/22/21 86/22/38 84/21/38 
f 47/22/21 48/19/31 87/19/48 86/22/38 
f 48/19/31 49/23/24 88/23/29 87/19/48 
f 49/23/24 51/24/25 89/24/29 88/23/29 
f 51/24/25 50/20/32 90/20/49 89/24/29 
f 50/20/32 52/14/27 91/14/14 90/20/49 
f 52/14/27 53/13/27 92/13/14 91/14/14 
f 53/13/27 54/19/33 93/19/50 92/13/14 
f 54/19/33 55/25/29 94/25/25 93/19/50 
f 55/25/29 59/29/29 95/29/25 94/25/25 
f 59/29/29 58/28/29 96/28/25 95/29/25 
f 58/28/29 57/27/29 97/27/25 96/28/25 
f 57/27/29 56/26/29 98/26/25 97/27/25 
f 56/26/29 46/20/30 85/20/47 98/26/25 
f 31/33/20 29/34/20 99/34/20 100/33/20 
f 29/34/20 70/34/29 101/34/20 99/34/20 
f 70/34/29 69/33/29 102/33/20 101/34/20 
f 69/33/29 31/33/20 100/33/20 102/33/20 
f 30/23/24 32/24/25 103/24/51 104/23/52 
f 32/24/25 51/24/25 105/24/12 103/24/51 
f 51/24/25 49/23/24 106/23/53 105/24/12 
f 49/23/24 30/23/24 104/23/52 106/23/53 
f 85/20/47 84/21/38 107/21/54 108/20/55 
f 84/21/38 86/22/38 109/22/54 107/21/54 
f 86/22/38 87/19/48 110/19/56 109/22/54 
f 87/19/48 88/23/29 111/23/57 110/19/56 
f 88/23/29 89/24/29 112/24/57 111/23/57 
f 89/24/29 90/20/49 113/20/58 112/24/57 
f 90/20/49 91/14/14 114/14/59 113/20/58 
f 91/14/14 92/13/14 115/13/59 114/14/59 
f 92/13/14 93/19/50 116/19/60 115/13/59 
f 93/19/50 94/25/25 117/25/61 116/19/60 
f 94/25/25 95/29/25 118/29/61 117/25/61 
f 95/29/25 96/28/25 119/28/61 118/29/61 
f 96/28/25 97/27/25 120/27/61 119/28/61 
f 97/27/25 98/26/25 121/26/61 120/27/61 
f 98/26/25 85/20/47 108/20/55 121/26/61 
f 108/20/55 107/21/54 122/21/62 123/20/63 
f 107/21/54 109/22/54 124/22/62 122/21/62 
f 109/22/54 110/19/56 125/19/64 124/22/62 
f 110/19/56 111/23/57 126/23/65 125/19/64 
f 111/23/57 112/24/57 127/24/65 126/23/65 
f 112/24/57 113/20/58 128/20/66 127/24/65 
f 113/20/58 114/14/59 129/14/67 128/20/66 
f 114/14/59 115/13/59 130/13/67 129/14/67 
f 115/13/59 116/19/60 131/19/68 130/13/67 
f 116/19/60 117/25/61 132/25/69 131/19/68 
f 117/25/61 118/29/61 133/29/69 132/25/69 
f 118/29/61 119/28/61 134/28/69 133/29/69 
f 119/28/61 120/27/61 135/27/69 134/28/69 
f 120/27/61 121/26/61 136/26/69 135/27/69 
f 121/26/61 108/20/55 123/20/63 136/26/69 
f 137/42/70 138/43/71 139/44/72 140/45/73 141/46/74 
f 142/43/75 138/43/71 137/42/70 143/42/76 
f 144/42/77 145/42/78 146/46/79 147/46/80 
f 148/46/81 141/46/74 140/45/73 149/45/82 
f 149/45/82 140/45/73 139/44/72 150/44/83 
f 143/42/76 144/42/77 147/46/80 148/46/81 
f 148/46/81 147/46/80 146/46/79 141/46/74 
f 141/46/74 146/46/79 145/42/78 137/42/70 
f 151/44/84 152/44/85 153/43/86 154/43/87 
f 154/43/87 153/43/86 155/43/88 156/43/89 
f 157/44/90 158/44/91 152/44/85 151/44/84 
f 150/44/83 142/43/75 143/42/76 148/46/81 149/45/82 
f 159/1/16 160/47/36 161/48/40 162/49/92 
f 163/5/15 164/50/19 165/51/93 166/52/94 
f 162/50/92 167/53/19 168/54/15 159/5/16 
f 169/55/95 170/56/96 171/57/97 172/58/97 
f 161/59/40 173/60/39 167/54/19 162/5/92 
f 174/61/98 175/62/99 170/57/96 169/58/95 
f 160/50/36 176/53/37 173/54/39 161/5/40 
f 177/55/100 178/56/100 175/57/99 174/58/98 
f 159/59/16 168/60/15 176/54/37 160/5/36 
f 172/61/97 171/62/97 178/57/100 177/58/100 
f 179/46/101 180/45/97 181/44/97 182/43/102 
f 183/63/103 184/45/104 185/44/105 186/64/106 
f 187/46/100 188/45/107 189/44/108 190/43/100 
f 188/63/107 179/45/101 191/45/109 192/63/110 
f 179/45/101 182/44/102 193/44/111 191/45/109 
f 182/44/102 189/64/108 194/64/112 193/44/111 
f 189/64/108 188/63/107 192/63/110 194/64/112 
f 169/55/95 172/58/97 195/54/49 196/53/50 
f 174/61/98 169/58/95 196/54/50 197/60/47 
f 198/53/48 177/55/100 174/58/98 197/54/47 
f 172/61/97 177/58/100 198/54/48 195/60/49 
f 196/53/50 195/54/49 168/54/15 167/53/19 
f 195/60/49 198/54/48 176/54/37 168/60/15 
f 198/53/48 197/54/47 173/54/39 176/53/37 
f 197/60/47 196/54/50 167/54/19 173/60/39 
f 192/63/110 191/45/109 199/45/113 200/63/114 
f 191/45/109 193/44/111 201/44/115 199/45/113 
f 193/44/111 194/64/112 202/64/116 201/44/115 
f 194/64/112 192/63/110 200/63/114 202/64/116 
f 200/63/114 199/45/113 203/45/117 204/63/118 
f 199/45/113 201/44/115 205/44/119 203/45/117 
f 201/44/115 202/64/116 206/64/120 205/44/119 
f 202/64/116 200/63/114 204/63/118 206/64/120 
f 180/5/97 179/50/101 164/50/19 163/5/15 
f 179/50/101 188/51/107 165/51/93 164/50/19 
f 188/51/107 187/52/100 166/52/94 165/51/93 
f 187/52/100 180/5/97 163/5/15 166/52/94 
f 182/43/102 181/44/97 171/57/97 170/56/96 
f 189/64/108 182/44/102 170/57/96 175/62/99 
f 190/43/100 189/44/108 175/57/99 178/56/100 
f 181/64/97 190/44/100 178/57/100 171/62/97 
f 204/63/118 203/45/117 207/45/121 208/63/122 
f 203/45/117 205/44/119 209/44/123 207/45/121 
f 205/44/119 206/64/120 210/64/124 209/44/123 
f 206/64/120 204/63/118 208/63/122 210/64/124 
f 208/63/122 207/45/121 184/45/104 183/63/103 
f 207/45/121 209/44/123 185/44/105 184/45/104 
f 209/44/123 210/64/124 186/64/106 185/44/105 
f 210/64/124 208/63/122 183/63/103 186/64/106 
f 190/43/100 181/64/97 180/45/97 187/52/100 
s 18
f 8/65/8 7/30/7 61/31/35 3/3/3 
s 8
f 4/6/4 211/66/125 83/40/46 5/7/5 
s 32
f 8/9/8 11/66/11 13/40/13 9/10/9 
s off
f 76/17/8 77/18/43 19/18/18 18/17/17 
f 80/32/4 81/18/45 62/18/36 68/32/41 
s 8
f 80/32/4 79/16/44 6/8/6 5/7/5 
s 32
f 76/17/8 75/16/42 10/8/10 9/10/9 
s 18
f 2/2/2 11/67/11 8/65/8 3/3/3 
s 64
f 2/11/2 1/68/1 6/41/6 12/12/12 
s 18
f 60/31/34 83/35/46 211/69/125 61/31/35 
s off
f 78/39/2 79/36/44 67/36/40 74/39/2 
f 82/31/35 75/30/42 17/30/16 71/31/35 
s 64
f 78/39/2 77/16/43 13/8/13 12/12/12 
s 18
f 82/31/35 81/35/45 83/35/46 60/31/34 
f 61/31/35 211/69/125 4/4/4 3/3/3 
# 181 polygons

